<svg xmlns="http://www.w3.org/2000/svg" version="1.1" xmlns:xlink="http://www.w3.org/1999/xlink" xmlns:svgjs="http://svgjs.dev/svgjs" width="600" height="600" viewBox="0 0 128 128"><g transform="matrix(0.8046875,0,0,0.8046875,12.760752631578946,21.61033551694917)"><svg viewBox="0 0 95 79" data-background-color="#ffffff" preserveAspectRatio="xMidYMid meet" height="106" width="128" xmlns="http://www.w3.org/2000/svg" xmlns:xlink="http://www.w3.org/1999/xlink"><g id="tight-bounds" transform="matrix(1,0,0,1,-0.24049999999999727,-0.23966960500000312)"><svg viewBox="0 0 95.481 79.47933920999999" height="79.47933920999999" width="95.481"><g><svg viewBox="0 0 95.481 79.47933920999999" height="79.47933920999999" width="95.481"><g><svg viewBox="0 0 95.481 79.47933920999999" height="79.47933920999999" width="95.481"><g id="textblocktransform"><svg viewBox="0 0 95.481 79.47933920999999" height="79.47933920999999" width="95.481" id="textblock"><g><svg viewBox="0 0 95.481 79.47933920999999" height="79.47933920999999" width="95.481"><g><svg viewBox="0 0 95.481 79.47933920999999" height="79.47933920999999" width="95.481"><g><svg version="1.1" xmlns="http://www.w3.org/2000/svg" xmlns:xlink="http://www.w3.org/1999/xlink" x="0" y="0" viewBox="0.23999999999999666 0 100.00000000000001 83.241" enable-background="new 0.24 12.616 100 70.625" xml:space="preserve" width="95.481" height="79.47933920999999" class="icon-icon-0" data-fill-palette-color="accent" id="icon-0"><rect x="41.932" y="19.744" width="39.071" height="6.451" fill="#d78f5b" data-fill-palette-color="accent"></rect><polyline points="41.811,20.405 38.457,20.405 43.969,12.616 78.844,12.616 84.479,20.405 80.882,20.405 " fill="#d78f5b" data-fill-palette-color="accent"></polyline><line fill="none" x1="86.621" y1="34.698" x2="91.972" y2="34.698"></line><rect x="86.621" y="32.9" width="5.351" height="3.596" fill="#d78f5b" data-fill-palette-color="accent"></rect><path d="M100.24 62.654H89.813V31.912h10.427V62.654zM91.972 60.496h6.111V34.069h-6.111V60.496z" fill="#d78f5b" data-fill-palette-color="accent"></path><path d="M87.028 25.369H35.59V82.98h15.431V71.664h9.26V82.98h3.086V71.664h8.23V82.98h15.431V25.369zM57.194 62.405H41.763v-7.202h15.431V62.405zM57.194 51.088H41.763v-7.201h15.431V51.088zM57.194 38.743H41.763v-7.201h15.431V38.743zM80.856 62.405H65.425v-7.202h15.432V62.405zM80.856 51.088H65.425v-7.201h15.432V51.088zM80.856 38.743H65.425v-7.201h15.432V38.743z" fill="#d78f5b" data-fill-palette-color="accent"></path><path d="M26.194 83.241c0 0 2.674-11.427-1.626-18.217-4.3-6.791-8.034-7.814-8.996-8.151-2.198-0.768-8.874 5.639-8.316 11.094-2.77-3.756-3.514-11.706 2.729-14.668-1.922-1.134-6.963 1.151-9.745 3.578 0-4.864 5.26-9.927 10.871-8.976 0.873-1.204 1.244-8.532 12.312-8.806-4.337 2.223-7.23 7.445-6.896 9.483 0.418-0.53 8.829-6.921 16.289 3.281-4.765-1.664-10.517-1.664-13.229 2.528 16.068 7.468 11.51 28.846 11.03 28.851C29.868 83.241 26.194 83.241 26.194 83.241z" fill="#d78f5b" data-fill-palette-color="accent"></path></svg></g></svg></g></svg></g></svg></g></svg></g></svg></g><defs></defs></svg><rect width="200.481" height="200.47933920999999" fill="none" stroke="none" visibility="hidden"></rect></g></svg></g></svg>